<svg width="68" height="56" viewBox="0 0 68 56" fill="none" xmlns="http://www.w3.org/2000/svg">
<g clip-path="url(#clip0_150_14)">
<path d="M38.1605 16.87L36.8643 15.87C36.6617 15.7043 36.4026 15.626 36.1432 15.6522C35.8838 15.6784 35.6451 15.807 35.479 16.01L17.5396 36.83L17.8166 37.14L22.2594 33C22.1114 32.9398 21.9888 32.8291 21.9132 32.6871C21.8375 32.5451 21.8135 32.3807 21.8452 32.2227C21.877 32.0646 21.9625 31.9227 22.087 31.8218C22.2115 31.7208 22.367 31.6671 22.5266 31.67C22.6705 31.67 22.8106 31.7166 22.9264 31.803C23.0421 31.8894 23.1274 32.011 23.1698 32.15L29.0275 26.66C29.1172 26.587 29.229 26.5472 29.3442 26.5472C29.4594 26.5472 29.5711 26.587 29.6608 26.66L29.9577 26.88C30.0581 26.9528 30.1818 26.9849 30.3045 26.9701C30.4272 26.9553 30.54 26.8946 30.6206 26.8L38.2793 18.12C38.3607 18.0339 38.4228 17.931 38.4613 17.8184C38.4999 17.7058 38.514 17.5862 38.5028 17.4676C38.4915 17.349 38.4551 17.2343 38.396 17.1312C38.337 17.028 38.2567 16.939 38.1605 16.87Z" fill="#303030"/>
<path d="M46.5909 22.73C42.6651 25.553 38.2672 27.6364 33.6088 28.88C28.9854 30.0683 24.2544 30.7786 19.4888 31C19.5847 31.7102 19.7573 32.4077 20.0033 33.08C22.6947 35.54 42.9595 31.34 46.9175 26.48C47.7585 25.47 46.5909 22.73 46.5909 22.73ZM22.5265 33C22.3934 33 22.2633 32.9601 22.1527 32.8854C22.042 32.8107 21.9558 32.7045 21.9049 32.5802C21.8539 32.4559 21.8406 32.3192 21.8666 32.1873C21.8925 32.0554 21.9566 31.9342 22.0507 31.8391C22.1448 31.744 22.2647 31.6793 22.3952 31.653C22.5258 31.6268 22.661 31.6403 22.784 31.6917C22.9069 31.7432 23.012 31.8304 23.086 31.9422C23.1599 32.054 23.1994 32.1855 23.1994 32.32C23.2007 32.4097 23.1842 32.4987 23.1509 32.5818C23.1175 32.6649 23.068 32.7404 23.0053 32.8038C22.9425 32.8672 22.8678 32.9173 22.7856 32.951C22.7033 32.9847 22.6152 33.0013 22.5265 33Z" fill="#303030"/>
<path d="M3.38005 21.2899L3.53837 20.5999L6.11105 21.1899C6.3233 21.5861 6.45453 22.0214 6.49695 22.4699C6.54606 22.945 6.51595 23.425 6.4079 23.8899C6.27981 24.5352 5.98638 25.1352 5.55693 25.6299C5.14836 26.097 4.62154 26.4428 4.03312 26.6299C3.42665 26.8189 2.78162 26.8431 2.16298 26.6999C1.54299 26.5646 0.971501 26.2603 0.510531 25.8199C0.0566212 25.3969 -0.269321 24.8526 -0.429485 24.2499C-0.607164 23.5954 -0.607164 22.9045 -0.429485 22.2499C-0.323137 21.76 -0.132216 21.2929 0.134525 20.8699C0.386982 20.4853 0.726085 20.1665 1.12402 19.9399L1.48023 20.4899C1.13916 20.7016 0.846384 20.9839 0.621237 21.3183C0.39609 21.6527 0.243692 22.0316 0.174104 22.4299C0.051394 22.9473 0.0616127 23.4877 0.203789 23.9999C0.336746 24.4863 0.600476 24.9259 0.965697 25.2699C1.34109 25.6367 1.81075 25.8896 2.3213 25.9999C2.81637 26.1404 3.34015 26.1404 3.83522 25.9999C4.30947 25.8417 4.73543 25.5628 5.07208 25.1899C5.41805 24.7873 5.65647 24.3019 5.76473 23.7799C5.92753 23.1468 5.88593 22.4776 5.64599 21.8699L3.38005 21.2899Z" fill="#303030"/>
<path d="M8.9804 15.0001L6.67489 18.1101L7.66438 19.9001L7.20921 20.5201L3.5481 13.7701L3.97358 13.1801L11.4244 14.8001L10.9594 15.4201L8.9804 15.0001ZM8.32734 14.8401L4.36937 13.9401L6.34835 17.5301L8.32734 14.8401Z" fill="#303030"/>
<path d="M8.32739 8.54998L8.92109 8.09998L12.691 13.2L15.798 10.85L16.1741 11.36L12.4833 14.15L8.32739 8.54998Z" fill="#303030"/>
<path d="M14.561 4.37996L15.224 4.07996L17.8362 9.85996L21.3687 8.23996L21.626 8.81996L17.4306 10.75L14.561 4.37996Z" fill="#303030"/>
<path d="M27.6025 6.68003L27.751 7.31003L22.9816 8.44003L21.3984 1.62003L26.0293 0.530029L26.1678 1.15003L22.2098 2.08003L22.7738 4.50003L26.2568 3.67003L26.4053 4.29003L22.9124 5.11003L23.5061 7.64003L27.6025 6.68003Z" fill="#303030"/>
<path d="M34.4005 6.92997L32.748 4.72997C32.5635 4.74029 32.3785 4.74029 32.1939 4.72997L30.3337 4.78997L30.4029 7.00997H29.6707L29.4431 0.00996866L32.0752 -3.1339e-05C32.8193 -0.0694894 33.5635 0.132721 34.1729 0.569969C34.4297 0.778962 34.6362 1.04418 34.7767 1.3456C34.9173 1.64702 34.9882 1.97678 34.9843 2.30997C35.0131 2.80416 34.8849 3.29473 34.6182 3.70997C34.3338 4.10853 33.9321 4.40603 33.4703 4.55997L35.202 6.89997L34.4005 6.92997ZM33.7078 3.63997C33.8857 3.47531 34.0237 3.27154 34.1112 3.04439C34.1987 2.81725 34.2333 2.57281 34.2125 2.32997C34.2176 2.08584 34.1677 1.84374 34.0665 1.62198C33.9654 1.40022 33.8156 1.20461 33.6287 1.04997C33.1726 0.737448 32.6242 0.592707 32.0752 0.639969L30.1951 0.709969L30.3139 4.20997L32.1543 4.14997C32.7155 4.17096 33.2659 3.99026 33.7078 3.63997Z" fill="#303030"/>
<path d="M39.6347 5.07L39.2785 7.46L38.5562 7.35L38.9223 5L36.874 0L37.6458 0.12L39.3972 4.38L42.3657 0.85L43.0583 1L39.6347 5.07Z" fill="#303030"/>
<path d="M49.4209 4.65005L50.2818 5.78005L49.9058 6.08005L49.0449 4.92005L48.5007 6.23005L48.0851 6.05005L48.6392 4.74005L47.2144 4.93005V4.45005L48.6194 4.29005L47.7487 3.16005L48.1346 2.86005L48.8965 4.00005L49.4308 2.68005L49.8563 2.86005L49.3517 4.20005L50.7765 4.00005V4.49005L49.4209 4.65005Z" fill="#303030"/>
<path d="M52.7258 12.71C52.4921 12.346 52.3464 11.9315 52.3003 11.5L52.8841 11.24C52.9279 11.6364 53.0562 12.0185 53.2601 12.36C53.4811 12.743 53.7695 13.0819 54.1111 13.36C54.4638 13.7013 54.9138 13.9217 55.3974 13.99C55.5721 14.0064 55.7482 13.9794 55.9103 13.9115C56.0723 13.8435 56.2156 13.7366 56.3275 13.6C56.4096 13.5085 56.4721 13.4009 56.5113 13.284C56.5505 13.167 56.5654 13.0431 56.5551 12.92C56.5224 12.6763 56.4416 12.4417 56.3176 12.23C56.1317 11.9231 55.9302 11.626 55.714 11.34C55.4506 10.9912 55.2125 10.6236 55.0016 10.24C54.8404 9.95296 54.752 9.63003 54.7443 9.30004C54.7436 8.92946 54.8815 8.5723 55.1302 8.30004C55.3459 8.03617 55.6304 7.83869 55.9515 7.73004C56.3103 7.62531 56.6911 7.62531 57.0499 7.73004C57.5121 7.88282 57.9394 8.12763 58.3065 8.45004C58.6111 8.70611 58.8807 9.00205 59.108 9.33004C59.3182 9.6342 59.4755 9.97239 59.5731 10.33L59.009 10.63C58.9107 10.2967 58.764 9.97991 58.5737 9.69004C58.3841 9.43118 58.1612 9.19913 57.9107 9.00004C57.5632 8.66028 57.1146 8.44587 56.6343 8.39004C56.4577 8.37512 56.2803 8.40478 56.118 8.47635C55.9556 8.54792 55.8134 8.65915 55.7041 8.80004C55.62 8.89013 55.5561 8.99753 55.5168 9.11489C55.4775 9.23226 55.4638 9.35681 55.4766 9.48004C55.4997 9.73221 55.5811 9.97538 55.714 10.19C55.8526 10.42 56.0505 10.72 56.3176 11.08C56.5825 11.4208 56.8207 11.7819 57.0301 12.16C57.1947 12.4462 57.2865 12.7692 57.2972 13.1C57.2979 13.4706 57.1601 13.8278 56.9113 14.1C56.6949 14.3675 56.4061 14.5656 56.0801 14.67C55.722 14.7793 55.3399 14.7793 54.9818 14.67C54.5164 14.5177 54.0858 14.2729 53.7153 13.95C53.3158 13.5987 52.9809 13.179 52.7258 12.71Z" fill="#303030"/>
<path d="M62.6799 14.17L61.2847 12.17L61.7993 11.8L65.0151 16.44L64.5006 16.81L63.1054 14.81L57.9402 18.46L57.5247 17.85L62.6799 14.17Z" fill="#303030"/>
<path d="M60.4635 22.39C60.6402 21.7856 60.9834 21.2445 61.453 20.83C61.9124 20.4141 62.4721 20.1279 63.0758 20C63.6911 19.8572 64.3329 19.8814 64.936 20.07C65.5182 20.2645 66.04 20.6092 66.4499 21.07C66.8762 21.5656 67.1662 22.1656 67.291 22.81C67.4549 23.4426 67.4549 24.1073 67.291 24.74C67.1095 25.3421 66.7671 25.8819 66.3015 26.3C65.8294 26.727 65.2559 27.0233 64.6369 27.16C64.0179 27.2967 63.3744 27.2691 62.769 27.08C62.1824 26.8949 61.6583 26.5487 61.2551 26.08C60.8308 25.587 60.5409 24.9907 60.414 24.35C60.2629 23.7033 60.2799 23.028 60.4635 22.39ZM61.7597 25.57C62.0901 25.9502 62.5182 26.2306 62.9966 26.38C63.4897 26.5245 64.0108 26.5417 64.5121 26.4298C65.0135 26.318 65.479 26.0808 65.8661 25.74C66.2313 25.4004 66.5011 24.9691 66.6478 24.49C66.7858 23.9841 66.7993 23.4517 66.6872 22.9393C66.5751 22.4269 66.3408 21.95 66.0047 21.55C65.6598 21.1679 65.2185 20.8879 64.7282 20.74C64.2289 20.606 63.7037 20.606 63.2044 20.74C62.7006 20.8377 62.2342 21.0768 61.8587 21.43C61.4901 21.7708 61.22 22.2062 61.077 22.69C60.9427 23.1977 60.9427 23.7322 61.077 24.24C61.1854 24.7361 61.4208 25.1947 61.7597 25.57Z" fill="#303030"/>
<path d="M59.7114 34L62.2742 33C62.2742 32.82 62.3336 32.64 62.3831 32.45L62.8679 30.64L60.7702 30.09L60.9582 29.38L67.6472 31.19L66.9743 33.72C66.8227 34.4582 66.4158 35.1177 65.8265 35.58C65.5557 35.7701 65.2451 35.8942 64.919 35.9428C64.5928 35.9914 64.26 35.963 63.9465 35.86C63.469 35.7553 63.0411 35.4892 62.7334 35.1056C62.4258 34.722 62.2568 34.2438 62.2544 33.75L59.5234 34.75L59.7114 34ZM63.0262 34.28C63.1421 34.4925 63.2994 34.6792 63.4885 34.8287C63.6776 34.9782 63.8947 35.0876 64.1267 35.1502C64.3587 35.2128 64.6008 35.2273 64.8385 35.1929C65.0762 35.1585 65.3046 35.0759 65.5099 34.95C65.9466 34.5955 66.2447 34.0958 66.3509 33.54L66.8259 31.74L63.4715 30.83L62.9965 32.63C62.814 33.1664 62.8245 33.7507 63.0262 34.28Z" fill="#303030"/>
<path d="M56.1592 40.44L55.6545 40.05L58.623 36.1L64.1444 40.33L61.2748 44.16L60.7702 43.77L63.1945 40.54L61.2155 39.03L59.0485 41.92L58.5537 41.54L60.7702 38.65L58.722 37.08L56.1592 40.44Z" fill="#303030"/>
<path d="M53.8439 48.41L52.429 48.49V48.01L53.8439 48L53.082 46.81L53.4679 46.56L54.2199 47.76L54.8334 46.42L55.2589 46.65L54.586 47.91L56.001 47.83V48.32H54.5663L55.3282 49.51L54.9423 49.76L54.1902 48.56L53.5372 49.86L53.1216 49.62L53.8439 48.41Z" fill="#303030"/>
<path d="M40.9804 47.61L42.1777 48.28C42.3784 47.8904 42.6586 47.5481 42.9997 47.2757C43.3408 47.0034 43.7351 46.8072 44.1567 46.7C44.5499 46.5761 44.9635 46.5319 45.3737 46.57C45.7297 46.5976 46.0716 46.722 46.3632 46.93C46.6269 47.1309 46.8209 47.4109 46.9174 47.73C47.0366 48.1248 47.0156 48.5493 46.858 48.93C46.6097 49.4474 46.275 49.9176 45.8685 50.32C46.1947 50.4972 46.4973 50.7156 46.7689 50.97C46.9555 51.1649 47.0944 51.4012 47.1746 51.66C47.2253 51.8618 47.2285 52.0728 47.1838 52.276C47.1391 52.4792 47.0478 52.669 46.9174 52.83C46.6532 53.2147 46.2591 53.4885 45.8091 53.6C45.414 53.7523 44.9773 53.7523 44.5822 53.6C44.4065 53.5237 44.2507 53.4072 44.1271 53.2597C44.0035 53.1122 43.9154 52.9377 43.8697 52.75C43.766 52.4199 43.7908 52.0623 43.939 51.75C44.1661 51.2954 44.4634 50.8802 44.8196 50.52L42.435 49.18C42.344 49.651 42.324 50.1331 42.3756 50.61H41.772C41.7314 50.0227 41.7985 49.4328 41.9699 48.87L40.7231 48.17L40.9804 47.61ZM42.7021 48.61L45.3243 50.08C45.6679 49.7484 45.9524 49.3593 46.1653 48.93C46.2741 48.6401 46.2741 48.32 46.1653 48.03C46.1205 47.8568 46.0337 47.6975 45.9128 47.5666C45.7919 47.4357 45.6406 47.3372 45.4727 47.28C45.0619 47.1398 44.6169 47.1398 44.2061 47.28C43.8705 47.3695 43.5583 47.5323 43.2916 47.7569C43.0249 47.9815 42.8102 48.2625 42.6625 48.58L42.7021 48.61ZM46.4226 52.61C46.4873 52.4995 46.5278 52.3763 46.5414 52.2487C46.5551 52.1211 46.5416 51.9919 46.5018 51.87C46.4411 51.6726 46.3322 51.4937 46.1851 51.35C45.9333 51.1353 45.6577 50.9508 45.3639 50.8C45.0639 51.0998 44.8013 51.4357 44.5822 51.8C44.4625 52.0272 44.4342 52.2923 44.503 52.54C44.5344 52.6545 44.5894 52.7609 44.6645 52.8522C44.7395 52.9436 44.8329 53.0178 44.9384 53.07C45.1903 53.166 45.4682 53.166 45.7201 53.07C45.9891 52.9975 46.224 52.831 46.383 52.6L46.4226 52.61Z" fill="#303030"/>
<path d="M28.9187 55.3199L29.0572 48.3199H29.7598L29.6509 53.9199L32.4611 49.2599H32.8074L35.4394 53.9999L35.5384 48.4299H36.2409L36.1123 55.4299H35.5087L32.5996 50.1999L29.5223 55.3299L28.9187 55.3199Z" fill="#303030"/>
<path d="M25.4751 48C25.9276 48.4358 26.2514 48.9901 26.4104 49.601C26.5694 50.212 26.5573 50.8556 26.3756 51.46C26.213 52.0789 25.8882 52.642 25.4355 53.09C24.9956 53.527 24.444 53.8317 23.8425 53.97C23.2079 54.1147 22.5474 54.094 21.9229 53.91C21.3005 53.7564 20.7279 53.4429 20.2605 53C19.8148 52.5697 19.4962 52.0227 19.3403 51.42C19.1881 50.7969 19.1993 50.1446 19.3729 49.5273C19.5464 48.91 19.8762 48.3491 20.3298 47.9C20.7619 47.4641 21.3018 47.1533 21.8932 47C22.5244 46.8557 23.1817 46.8763 23.8029 47.06C24.4317 47.221 25.0081 47.545 25.4751 48ZM22.101 47.65C21.6169 47.7639 21.1745 48.0134 20.8245 48.37C20.46 48.7369 20.2002 49.1963 20.0725 49.7C19.9345 50.2004 19.9345 50.7295 20.0725 51.23C20.1892 51.7169 20.4396 52.1606 20.7948 52.51C21.1674 52.8782 21.6274 53.1433 22.1306 53.28C22.6339 53.4095 23.1612 53.4095 23.6644 53.28C24.1488 53.1596 24.5927 52.9111 24.9507 52.56C25.3133 52.1916 25.5727 51.7327 25.7027 51.23C25.841 50.7262 25.841 50.1938 25.7027 49.69C25.5761 49.2049 25.3232 48.7629 24.9705 48.41C24.596 48.0413 24.1317 47.7791 23.6248 47.65C23.1262 47.5107 22.5996 47.5107 22.101 47.65Z" fill="#303030"/>
<path d="M14.6105 43L14.8777 45.75C15.0474 45.8233 15.2126 45.9068 15.3724 46L16.9853 46.94L18.0738 45L18.7169 45.37L15.2537 51.4L12.9977 50.09C12.3308 49.7515 11.8048 49.1844 11.5134 48.49C11.4059 48.1772 11.3696 47.8439 11.4073 47.5149C11.445 47.1859 11.5557 46.8698 11.7311 46.59C11.9611 46.1518 12.3257 45.8008 12.7701 45.59C13.2214 45.4011 13.7205 45.3626 14.1949 45.48L13.908 42.54L14.6105 43ZM13.4825 46.16C13.2501 46.219 13.0319 46.3247 12.8408 46.4708C12.6498 46.617 12.4899 46.8006 12.3707 47.0107C12.2516 47.2207 12.1756 47.4529 12.1473 47.6934C12.119 47.9338 12.139 48.1776 12.2061 48.41C12.438 48.9276 12.8401 49.3481 13.344 49.6L14.9371 50.53L16.6687 47.53L15.0756 46.6C14.6177 46.2533 14.0539 46.0799 13.4825 46.11V46.16Z" fill="#303030"/>
<path d="M8.75283 38.31L9.1981 37.86L12.6118 41.41L7.66439 46.29L4.36938 42.85L4.82455 42.4L7.62481 45.31L9.31684 43.58L6.8629 41L7.33786 40.54L9.84127 43.14L11.6817 41.33L8.75283 38.31Z" fill="#303030"/>
<path d="M1.40084 34.38L1.63832 33L2.10338 33.07L1.83622 34.49L3.15224 34L3.31056 34.44L1.97475 34.9L3.07308 35.84L2.75644 36.2L1.69769 35.2L1.45032 36.62L0.97536 36.53L1.25242 35.11L-0.0735002 35.59L-0.221924 35.2L1.10399 34.73L0.005659 33.8L0.332191 33.44L1.40084 34.38Z" fill="#303030"/>
</g>
<defs>
<clipPath id="clip0_150_14">
<rect width="68.2056" height="55.46" fill="white" transform="translate(-0.578125)"/>
</clipPath>
</defs>
</svg>
